<svg width="15" height="14" viewBox="0 0 15 14" fill="none" xmlns="http://www.w3.org/2000/svg">
<path d="M11.6402 8.63667C11.4575 8.81373 11.3736 9.0698 11.4152 9.32093L12.0423 12.7916C12.0952 13.0858 11.9711 13.3835 11.7249 13.5535C11.4836 13.7298 11.1627 13.751 10.8995 13.6099L7.77521 11.9804C7.66657 11.9225 7.54594 11.8915 7.4225 11.888H7.23132C7.16501 11.8979 7.10012 11.919 7.04086 11.9515L3.91582 13.5888C3.76133 13.6664 3.58639 13.6939 3.41497 13.6664C2.99736 13.5874 2.71871 13.1895 2.78714 12.7698L3.41497 9.29907C3.45659 9.04582 3.37264 8.78834 3.18994 8.60845L0.642642 6.13946C0.429603 5.93277 0.355534 5.62238 0.452883 5.34233C0.54741 5.06298 0.788665 4.85911 1.08001 4.81326L4.58598 4.30465C4.85263 4.27714 5.08683 4.11489 5.20675 3.87504L6.75163 0.707678C6.78832 0.637135 6.83558 0.572236 6.89272 0.517213L6.95621 0.467833C6.98936 0.431151 7.02746 0.400817 7.06978 0.376127L7.14667 0.34791L7.2666 0.298531H7.56358C7.82882 0.326042 8.06232 0.484763 8.18436 0.721786L9.7497 3.87504C9.86256 4.10572 10.082 4.26585 10.3352 4.30465L13.8412 4.81326C14.1374 4.85559 14.3851 5.06016 14.4831 5.34233C14.5755 5.62521 14.4958 5.93559 14.2785 6.13946L11.6402 8.63667Z" fill="#F9B023"/>
</svg>
